<svg width="40" height="40" viewBox="0 0 40 40" fill="none" xmlns="http://www.w3.org/2000/svg">
<circle cx="20" cy="20" r="20" fill="#5B8EF4"/>
<path d="M9.06641 20.1445H6.89258L6.88086 19.0723H8.7793C9.09961 19.0723 9.37109 19.0254 9.59375 18.9316C9.82031 18.834 9.99219 18.6953 10.1094 18.5156C10.2266 18.332 10.2852 18.1113 10.2852 17.8535C10.2852 17.5684 10.2305 17.3359 10.1211 17.1562C10.0117 16.9766 9.84375 16.8457 9.61719 16.7637C9.39453 16.6816 9.10938 16.6406 8.76172 16.6406H7.33789V24H5.86719V15.4688H8.76172C9.23047 15.4688 9.64844 15.5137 10.0156 15.6035C10.3867 15.6934 10.7012 15.834 10.959 16.0254C11.2207 16.2129 11.418 16.4512 11.5508 16.7402C11.6875 17.0293 11.7559 17.373 11.7559 17.7715C11.7559 18.123 11.6719 18.4453 11.5039 18.7383C11.3359 19.0273 11.0879 19.2637 10.7598 19.4473C10.4316 19.6309 10.0234 19.7402 9.53516 19.7754L9.06641 20.1445ZM9.00195 24H6.42969L7.0918 22.834H9.00195C9.33398 22.834 9.61133 22.7793 9.83398 22.6699C10.0566 22.5566 10.2227 22.4023 10.332 22.207C10.4453 22.0078 10.502 21.7754 10.502 21.5098C10.502 21.2324 10.4531 20.9922 10.3555 20.7891C10.2578 20.582 10.1035 20.4238 9.89258 20.3145C9.68164 20.2012 9.40625 20.1445 9.06641 20.1445H7.41406L7.42578 19.0723H9.57617L9.91016 19.4766C10.3789 19.4922 10.7637 19.5957 11.0645 19.7871C11.3691 19.9785 11.5957 20.2266 11.7441 20.5312C11.8926 20.8359 11.9668 21.1641 11.9668 21.5156C11.9668 22.0586 11.8477 22.5137 11.6094 22.8809C11.375 23.248 11.0371 23.5273 10.5957 23.7188C10.1543 23.9062 9.62305 24 9.00195 24ZM14.8203 17.6602V24H13.4023V17.6602H14.8203ZM13.3086 15.9961C13.3086 15.7812 13.3789 15.6035 13.5195 15.4629C13.6641 15.3184 13.8633 15.2461 14.1172 15.2461C14.3672 15.2461 14.5645 15.3184 14.709 15.4629C14.8535 15.6035 14.9258 15.7812 14.9258 15.9961C14.9258 16.207 14.8535 16.3828 14.709 16.5234C14.5645 16.6641 14.3672 16.7344 14.1172 16.7344C13.8633 16.7344 13.6641 16.6641 13.5195 16.5234C13.3789 16.3828 13.3086 16.207 13.3086 15.9961ZM17.7676 19.0137V24H16.3555V17.6602H17.6855L17.7676 19.0137ZM17.5156 20.5957L17.0586 20.5898C17.0625 20.1406 17.125 19.7285 17.2461 19.3535C17.3711 18.9785 17.543 18.6562 17.7617 18.3867C17.9844 18.1172 18.25 17.9102 18.5586 17.7656C18.8672 17.6172 19.2109 17.543 19.5898 17.543C19.8945 17.543 20.1699 17.5859 20.416 17.6719C20.666 17.7539 20.8789 17.8887 21.0547 18.0762C21.2344 18.2637 21.3711 18.5078 21.4648 18.8086C21.5586 19.1055 21.6055 19.4707 21.6055 19.9043V24H20.1875V19.8984C20.1875 19.5938 20.1426 19.3535 20.0527 19.1777C19.9668 18.998 19.8398 18.8711 19.6719 18.7969C19.5078 18.7188 19.3027 18.6797 19.0566 18.6797C18.8145 18.6797 18.5977 18.7305 18.4062 18.832C18.2148 18.9336 18.0527 19.0723 17.9199 19.248C17.791 19.4238 17.6914 19.627 17.6211 19.8574C17.5508 20.0879 17.5156 20.334 17.5156 20.5957ZM27.1074 17.6602H28.3906V23.8242C28.3906 24.3945 28.2695 24.8789 28.0273 25.2773C27.7852 25.6758 27.4473 25.9785 27.0137 26.1855C26.5801 26.3965 26.0781 26.502 25.5078 26.502C25.2656 26.502 24.9961 26.4668 24.6992 26.3965C24.4062 26.3262 24.1211 26.2129 23.8438 26.0566C23.5703 25.9043 23.3418 25.7031 23.1582 25.4531L23.8203 24.6211C24.0469 24.8906 24.2969 25.0879 24.5703 25.2129C24.8438 25.3379 25.1309 25.4004 25.4316 25.4004C25.7559 25.4004 26.0312 25.3398 26.2578 25.2188C26.4883 25.1016 26.666 24.9277 26.791 24.6973C26.916 24.4668 26.9785 24.1855 26.9785 23.8535V19.0957L27.1074 17.6602ZM22.8008 20.9004V20.7773C22.8008 20.2969 22.8594 19.8594 22.9766 19.4648C23.0938 19.0664 23.2617 18.7246 23.4805 18.4395C23.6992 18.1504 23.9648 17.9297 24.2773 17.7773C24.5898 17.6211 24.9434 17.543 25.3379 17.543C25.748 17.543 26.0977 17.6172 26.3867 17.7656C26.6797 17.9141 26.9238 18.127 27.1191 18.4043C27.3145 18.6777 27.4668 19.0059 27.5762 19.3887C27.6895 19.7676 27.7734 20.1895 27.8281 20.6543V21.0469C27.7773 21.5 27.6914 21.9141 27.5703 22.2891C27.4492 22.6641 27.2891 22.9883 27.0898 23.2617C26.8906 23.5352 26.6445 23.7461 26.3516 23.8945C26.0625 24.043 25.7207 24.1172 25.3262 24.1172C24.9395 24.1172 24.5898 24.0371 24.2773 23.877C23.9688 23.7168 23.7031 23.4922 23.4805 23.2031C23.2617 22.9141 23.0938 22.5742 22.9766 22.1836C22.8594 21.7891 22.8008 21.3613 22.8008 20.9004ZM24.2129 20.7773V20.9004C24.2129 21.1895 24.2402 21.459 24.2949 21.709C24.3535 21.959 24.4414 22.1797 24.5586 22.3711C24.6797 22.5586 24.832 22.707 25.0156 22.8164C25.2031 22.9219 25.4238 22.9746 25.6777 22.9746C26.0098 22.9746 26.2812 22.9043 26.4922 22.7637C26.707 22.623 26.8711 22.4336 26.9844 22.1953C27.1016 21.9531 27.1836 21.6836 27.2305 21.3867V20.3262C27.207 20.0957 27.1582 19.8809 27.084 19.6816C27.0137 19.4824 26.918 19.3086 26.7969 19.1602C26.6758 19.0078 26.5234 18.8906 26.3398 18.8086C26.1562 18.7227 25.9395 18.6797 25.6895 18.6797C25.4355 18.6797 25.2148 18.7344 25.0273 18.8438C24.8398 18.9531 24.6855 19.1035 24.5645 19.2949C24.4473 19.4863 24.3594 19.709 24.3008 19.9629C24.2422 20.2168 24.2129 20.4883 24.2129 20.7773ZM29.5859 20.9004V20.7656C29.5859 20.3086 29.6523 19.8848 29.7852 19.4941C29.918 19.0996 30.1094 18.7578 30.3594 18.4688C30.6133 18.1758 30.9219 17.9492 31.2852 17.7891C31.6523 17.625 32.0664 17.543 32.5273 17.543C32.9922 17.543 33.4062 17.625 33.7695 17.7891C34.1367 17.9492 34.4473 18.1758 34.7012 18.4688C34.9551 18.7578 35.1484 19.0996 35.2812 19.4941C35.4141 19.8848 35.4805 20.3086 35.4805 20.7656V20.9004C35.4805 21.3574 35.4141 21.7812 35.2812 22.1719C35.1484 22.5625 34.9551 22.9043 34.7012 23.1973C34.4473 23.4863 34.1387 23.7129 33.7754 23.877C33.4121 24.0371 33 24.1172 32.5391 24.1172C32.0742 24.1172 31.6582 24.0371 31.291 23.877C30.9277 23.7129 30.6191 23.4863 30.3652 23.1973C30.1113 22.9043 29.918 22.5625 29.7852 22.1719C29.6523 21.7812 29.5859 21.3574 29.5859 20.9004ZM30.998 20.7656V20.9004C30.998 21.1855 31.0273 21.4551 31.0859 21.709C31.1445 21.9629 31.2363 22.1855 31.3613 22.377C31.4863 22.5684 31.6465 22.7188 31.8418 22.8281C32.0371 22.9375 32.2695 22.9922 32.5391 22.9922C32.8008 22.9922 33.0273 22.9375 33.2188 22.8281C33.4141 22.7188 33.5742 22.5684 33.6992 22.377C33.8242 22.1855 33.916 21.9629 33.9746 21.709C34.0371 21.4551 34.0684 21.1855 34.0684 20.9004V20.7656C34.0684 20.4844 34.0371 20.2188 33.9746 19.9688C33.916 19.7148 33.8223 19.4902 33.6934 19.2949C33.5684 19.0996 33.4082 18.9473 33.2129 18.8379C33.0215 18.7246 32.793 18.668 32.5273 18.668C32.2617 18.668 32.0312 18.7246 31.8359 18.8379C31.6445 18.9473 31.4863 19.0996 31.3613 19.2949C31.2363 19.4902 31.1445 19.7148 31.0859 19.9688C31.0273 20.2188 30.998 20.4844 30.998 20.7656Z" fill="white"/>
</svg>
