
<svg width="22px" height="22px" viewBox="0 0 22 22" version="1.1" xmlns="http://www.w3.org/2000/svg" xmlns:xlink="http://www.w3.org/1999/xlink">
    <title>tmkxxpuzpj</title>
    <g id="zfhrdpvphl" stroke="none" stroke-width="1" fill="none" fill-rule="evenodd">
        <g id="xrlrwbfjqi" transform="translate(-302.000000, -737.000000)" fill="#B6BABF">
            <g id="hinexujete" transform="translate(0.000000, 729.000000)">
                <g id="fzrfwwdwcy" transform="translate(302.916667, 8.916667)">
                    <path d="M7.46844324,20.1666667 C6.32108056,19.8428668 5.23911512,19.3210892 4.27135168,18.6248698 L4.31478917,16.5473442 C4.33340954,15.6468518 3.70690162,14.8612619 2.82483707,14.6790657 L0.787012306,14.2577689 C0.324901457,13.1588137 0.0585514002,11.9875057 -1.42108547e-14,10.796783 L1.65062404,9.53569503 C2.36660669,8.98883174 2.59032954,8.00889028 2.18261634,7.20548469 L1.24147105,5.3512183 C1.81393491,4.30541531 2.56330355,3.36672917 3.45631519,2.57682476 L5.47172061,3.08125995 C6.34556679,3.29990016 7.25100015,2.86387801 7.62491155,2.04436538 L8.48805622,0.152733421 C9.07418298,0.0508636099 9.66800736,-0.000236541008 10.2629208,8.23114544e-07 C10.8677759,8.23114544e-07 11.4604873,0.0523134451 12.0373183,0.152733421 L12.9004629,2.04436538 C13.2743743,2.86387801 14.1798077,3.29990016 15.0536539,3.08125995 L17.0685922,2.57682476 C17.9616039,3.36672917 18.7109725,4.30541531 19.2834364,5.3512183 L18.3427581,7.20548469 C17.934944,8.00878191 18.1584652,8.98870038 18.8742834,9.53569503 L20.5249074,10.796783 C20.466356,11.9875057 20.200006,13.1588137 19.7378951,14.2577689 L17.7005374,14.6785986 C16.8184729,14.8607948 16.191965,15.6463847 16.2105853,16.5468771 L16.2535557,18.6248698 C15.2857589,19.3209243 14.2037954,19.842543 13.0564642,20.1661996 L11.4572178,18.8359853 C10.7648247,18.2600352 9.76008266,18.2600352 9.06768961,18.8359853 L7.46844324,20.1666667 L7.46844324,20.1666667 Z M10.2624537,14.4791599 C12.5840525,14.4791599 14.4660803,12.5971322 14.4660803,10.2755333 C14.4660803,7.95393445 12.5840525,6.07190673 10.2624537,6.07190673 C7.94085484,6.07190673 6.05882712,7.95393445 6.05882712,10.2755333 C6.05882712,12.5971322 7.94085484,14.4791599 10.2624537,14.4791599 Z" id="tzepphcntr"></path>
                </g>
            </g>
        </g>
    </g>
</svg>