<?xml version="1.0" encoding="UTF-8"?>
<svg width="20px" height="20px" viewBox="0 0 20 20" version="1.1" xmlns="http://www.w3.org/2000/svg" xmlns:xlink="http://www.w3.org/1999/xlink">
    <title>Email</title>
    <g id="icon" stroke="none" stroke-width="1" fill="none" fill-rule="evenodd">
        <g id="Special" transform="translate(-210.000000, -30.000000)">
            <g id="Email" transform="translate(210.000000, 30.000000)">
                <path d="M1.42108547e-14,9.98248385 C1.42108547e-14,15.4960517 4.46920316,19.9658291 9.98248385,19.9658291 C15.4957645,19.9658291 19.965542,15.4963388 19.965542,9.982771 C19.965542,4.46949032 15.4960517,0 9.98248385,0 C4.4694903,-0.000287138819 1.42108547e-14,4.46920316 1.42108547e-14,9.98248385 Z" id="Rectangle" fill="#E7F0FC"></path>
                <path d="M10.7858873,10.7455802 L15.6308527,6.72089203 L15.6308527,13.3413299 C15.6236239,13.8399674 15.2136674,14.2384035 14.7150265,14.2314201 L5.56053076,14.2314201 C5.32121139,14.2346885 5.09039781,14.1427425 4.91887768,13.9758135 C4.74735755,13.8088845 4.64918439,13.5806499 4.64595998,13.3413299 L4.64595998,6.72089203 L9.49123921,10.7455802 C9.85278448,11.0927241 10.4240282,11.0927241 10.7858873,10.7455802 Z" id="Shape" fill="#5B8EF4"></path>
                <path d="M10.4732886,10.021839 C10.2818783,10.2056154 9.97955546,10.2056154 9.78814517,10.021839 L5.05553954,6.10637202 C5.20641815,6.00789513 5.38287116,5.95584313 5.56304158,5.95663563 L14.7162819,5.95663563 C14.8902172,5.95815747 15.0603392,6.00780353 15.2077774,6.10009495 L15.2115436,6.10009495 L10.4732886,10.021839 Z" id="Shape" fill="#5B8EF4" opacity="0.400000006"></path>
            </g>
        </g>
    </g>
</svg>