<?xml version="1.0" encoding="UTF-8"?>
<svg width="26px" height="26px" viewBox="0 0 26 26" version="1.1" xmlns="http://www.w3.org/2000/svg" xmlns:xlink="http://www.w3.org/1999/xlink">
    <title>编组_5</title>
    <g id="CA我的" stroke="none" stroke-width="1" fill="none" fill-rule="evenodd">
        <g id="My" transform="translate(-17.000000, -317.000000)">
            <g id="List-/-Settings备份-2" transform="translate(0.000000, 297.000000)">
                <g id="编组_5" transform="translate(17.000000, 20.000000)">
                    <rect id="矩形" fill="#FFAA3B" x="0" y="0" width="26" height="26" rx="6"></rect>
                    <g id="编组-2" transform="translate(6.285683, 5.234249)" fill="#FFFFFF" fill-rule="nonzero">
                        <path d="M6.12597579,0.190967607 C6.47526069,-0.062788742 6.94796109,-0.0637352223 7.29825937,0.188620362 L7.29825937,0.188620362 L7.42073886,0.276854837 C7.42802965,0.28295129 8.30664984,0.916964644 9.67933233,1.47309669 C10.5016814,1.79492068 11.3701114,1.98347617 12.2555296,2.03165306 L12.2555296,2.03165306 L12.8628103,2.04048412 C13.1752763,2.04502799 13.4261993,2.2996184 13.4262092,2.61211745 L13.4262092,2.61211745 L13.4286335,8.80133702 C13.4286335,9.63371686 13.1840445,10.5025863 12.7009273,11.3860729 C12.2439146,12.199045 11.6657386,12.9376638 10.9862908,13.576518 C10.3474415,14.1920872 9.62771133,14.7177572 8.8469525,15.1390284 C8.06569731,15.5491308 7.32824033,15.765751 6.71492283,15.765751 C6.0979332,15.765751 5.36778483,15.5539973 4.59628041,15.1487613 C3.85516912,14.7593548 3.11163351,14.2153979 2.4423249,13.576518 C0.888335296,12.0943133 0,10.3541323 0,8.80256701 L0,8.80256701 L0,3.03428801 C-8.7648696e-17,2.48766163 0.438920805,2.04232504 0.985489634,2.03439329 L0.985489634,2.03439329 L1.17431602,2.03165306 C2.05808639,1.98964391 2.92870758,1.80087477 3.75051333,1.47307887 C4.90645648,1.00373638 5.69391236,0.492969087 5.93556531,0.327396897 L6.00025433,0.282243463 L6.00025433,0.282243463 L6.01276111,0.273218356 Z M9.26667978,5.20678382 L6.07295437,8.27969946 L4.59912067,6.81842656 C4.27755263,6.50020238 3.75990131,6.50020238 3.43844255,6.81831834 C3.1198731,7.14120035 3.1198731,7.65748608 3.4368085,7.97873155 L5.490499,10.0195782 C5.81275733,10.337135 6.32934229,10.337135 6.65102269,10.0201501 L10.4256655,6.37040137 C10.7468081,6.04595092 10.7468081,5.5282996 10.4286921,5.20684083 C10.1051166,4.88847462 9.58778959,4.88902707 9.26667978,5.20678382 Z" id="形状结合"></path>
                    </g>
                </g>
            </g>
        </g>
    </g>
</svg>