<svg width="29" height="28" viewBox="0 0 29 28" fill="none" xmlns="http://www.w3.org/2000/svg">
<rect x="0.25" width="28" height="28" rx="14" fill="#E7F0FC"/>
<path fill-rule="evenodd" clip-rule="evenodd" d="M9.59367 5.5H18.6907C19.4443 5.5 20.0552 6.07084 20.0552 6.775V21.225C20.0552 21.9292 19.4443 22.5 18.6907 22.5H9.59367C8.84006 22.5 8.22913 21.9292 8.22913 21.225V6.775C8.22913 6.07084 8.84006 5.5 9.59367 5.5ZM13.403 19.1739C12.9948 19.1739 12.6639 19.5048 12.6639 19.913C12.6639 20.3213 12.9948 20.6522 13.403 20.6522H14.8813C15.2895 20.6522 15.6204 20.3213 15.6204 19.913C15.6204 19.5048 15.2895 19.1739 14.8813 19.1739H13.403Z" fill="#5B8EF4"/>
<rect x="9.7074" y="6.97827" width="8.86957" height="10.7174" rx="1" fill="#BDD4FF"/>
</svg>
